<?xml version="1.0" encoding="UTF-8"?>
<svg width="56px" height="44px" viewBox="0 0 56 44" version="1.1" xmlns="http://www.w3.org/2000/svg" xmlns:xlink="http://www.w3.org/1999/xlink">
    <title>62A60B4C-86B8-424E-8F62-3E6024423F23</title>
    <g id="Batch-02" stroke="none" stroke-width="1" fill="none" fill-rule="evenodd">
        <g id="Homepage-Design" transform="translate(-283.000000, -827.000000)" fill="#FFFFFF" fill-rule="nonzero">
            <g id="Statistics-Copy" transform="translate(116.000000, 770.000000)">
                <g id="charity(1)" transform="translate(167.000000, 57.000000)">
                    <path d="M51.907959,1.83739643 C50.8324551,-0.268716737 47.9697381,-0.656109453 46.4062875,1.15499613 C44.2360684,-1.34553906 39.597132,0.405761653 40.7111697,4.78167033 C39.9471566,5.09955105 39.0968589,5.67963594 38.3912573,6.73537035 C36.6348046,4.02496025 32.8100752,3.58668877 30.4956042,5.91517339 C29.5299272,6.88677931 28.9987827,8.17671226 29.0000021,9.54753798 C29.0053345,14.8083578 33.5747546,18.8488683 37.8502295,20.8764318 C38.2041408,21.0437962 38.6098006,21.03911 38.9542728,20.8747582 C39.6426619,20.5466125 41.4374263,19.6197486 43.2310803,18.1053243 C46.1378835,15.6510932 47.6641329,12.887796 47.7737376,9.885614 C49.2847734,9.00114912 50.5823741,7.80415918 51.3446104,6.5646587 C51.5863628,6.17157559 51.4650979,5.6558702 51.0738743,5.41296872 C50.6826508,5.17006723 50.169274,5.29168534 49.9275216,5.6849916 C49.1548467,6.94156325 47.7487517,8.03646092 46.4082864,8.7283452 C44.3262397,7.67696227 42.200551,5.73598194 42.198219,3.37737174 C42.1965533,1.63354663 44.5044724,1.04275042 45.3514386,2.54010361 C45.7683144,3.27650681 46.9347669,3.38161163 47.4574718,2.53541741 C48.244916,1.26411769 49.8597821,1.49318372 50.4257958,2.60158212 C50.6358994,3.01274057 51.1377272,3.17497243 51.5470516,2.96409333 C51.9564871,2.75310266 52.1179515,2.24855488 51.907959,1.83739643 Z M46.0652578,10.410915 C45.8009626,12.7024678 44.4903692,14.8560009 42.1594631,16.8240943 C40.6380998,18.10856 39.1185134,18.9311 38.3998081,19.2854662 C34.6336012,17.4548348 30.6703944,13.9626099 30.6657287,9.54608749 C30.664842,8.62245935 31.0229731,7.75305726 31.674161,7.09788156 C33.284363,5.47801767 35.9822841,5.84499193 37.1078708,7.8346195 C37.2536774,8.09247219 37.7762712,8.56600177 38.4324563,8.55071583 C38.9572711,8.53844244 39.4271169,8.22245852 39.6849713,7.80672544 C40.1869101,6.99623561 40.7964549,6.5627619 41.3375938,6.33302642 C42.5379161,8.46736837 45.0978041,10.0921416 46.0652578,10.410915 Z" id="Shape"></path>
                    <path d="M55.9154555,31.2358093 C55.9137055,31.2270702 55.9118461,31.2183311 55.9098774,31.2097027 C55.6272524,29.9800354 54.8993617,29.0959494 53.8617211,28.635322 C55.0661586,25.3375881 51.4730803,22.2454993 48.4282989,24.0735176 C40.4906267,28.8391972 40.8275017,28.5785732 40.3424236,29.1032504 L39.6305017,29.1533619 C39.8077986,28.0469268 39.5463923,26.6530975 38.0104391,25.5951146 C31.9623295,21.4278967 30.8864076,20.5110667 29.0541575,20.1106173 C23.6803448,18.9246455 22.572376,18.7209916 19.539079,19.3448961 C17.2446101,19.8168069 14.938985,20.5048719 12.6731724,21.3896217 L12.367688,20.6393875 C11.948563,19.609945 10.7854692,19.119671 9.76762542,19.5437934 L1.2589063,23.087328 C0.494156271,23.4059175 0,24.15228 0,24.9889095 L0,42.255911 C0,43.4996272 1.24950005,44.3365885 2.37770323,43.8682176 L17.1702351,37.7246381 C18.1856727,37.3017326 18.6717352,36.1220662 18.2534852,35.0949467 L18.2533758,35.0949467 L17.9611258,34.3771246 L18.8536258,34.0054368 C20.5801103,33.2862872 22.7028603,33.6093016 24.5320479,34.8692791 C29.6789075,38.4156899 29.7447513,38.5755378 31.0620638,39.0655905 C31.487642,39.223779 31.9586107,39.0033106 32.1151264,38.5733253 C32.2715326,38.14334 32.0535482,37.6664513 31.6284076,37.5082627 C30.6370326,37.139451 30.6943451,37.1075921 25.4556105,33.4980165 C23.1686885,31.9227681 20.4672352,31.5390225 18.2289852,32.4712289 L17.3364851,32.8429167 C17.2116882,32.5362742 14.53211,25.9554085 13.2974849,22.9229446 C15.4670475,22.0779079 17.6728133,21.4223656 19.8660008,20.9712516 C22.1437353,20.5028807 23.3516729,20.4504462 28.6892825,21.7288975 C30.2451419,22.1040146 30.9155013,22.7146446 37.0868766,26.9668197 C38.0154704,27.6064325 38.3334235,28.5704978 37.7341579,29.6663132 C37.6657985,29.7910941 37.031861,30.8685463 35.8293922,30.2680935 C33.9110639,29.3106655 29.3365638,27.0497857 29.2906263,27.0269977 C28.8832044,26.8258881 28.3921106,26.9965769 28.1934856,27.408199 C27.9946418,27.8199318 28.1632981,28.3166218 28.5702825,28.5178421 C28.6163293,28.5405194 33.1879858,30.7999611 35.1033609,31.755951 C36.6094547,32.5076233 38.045986,31.9821718 38.9066579,30.867772 C55.857268,29.6754948 51.1040491,29.959128 52.6448147,29.9766062 C53.3978617,30.1103474 54.0671273,30.5424345 54.3086273,31.5725408 C54.6783148,33.500782 52.7237835,34.151457 52.2691116,34.2754635 L35.3799703,37.7070493 C34.9357984,37.7973164 34.6481421,38.2346027 34.7372827,38.6838361 C34.8155952,39.0779801 35.157939,39.3502193 35.5407515,39.3502193 C35.5942359,39.3502193 35.6485953,39.3449094 35.7031734,39.3338473 C35.7390484,39.3265463 52.6274241,35.8958455 52.6628616,35.8865533 C54.1339554,35.4973873 56.4743618,34.0803274 55.9154555,31.2358093 Z M16.7364538,35.7267054 C16.8100632,35.907682 16.7244226,36.1155395 16.5462507,36.1897665 L1.75459382,42.3330141 C1.7433282,42.3376602 1.71390632,42.3499392 1.6772657,42.32516 C1.64073445,42.3003808 1.64073445,42.2679687 1.64073445,42.255911 L1.64073445,24.9889095 C1.64073445,24.8274023 1.73610945,24.6832626 1.88376571,24.6218677 L10.3928129,21.0781119 C10.4405004,21.0582 10.4855629,21.0511203 10.5255942,21.0511203 C10.5838911,21.0511203 10.631688,21.0660542 10.6613286,21.078665 C10.7115317,21.0997937 10.8028598,21.1528919 10.8509848,21.2712568 C13.481235,27.7317665 14.2378912,29.5898738 16.7364538,35.7267054 Z M52.2302835,28.2763556 C51.8076585,28.2600942 51.4455178,28.2922851 51.0431272,28.3504719 L47.3543458,28.6099897 L43.6534237,28.8702818 L49.2660021,25.5004227 C51.0678459,24.4187669 53.1586585,26.3904823 52.2302835,28.2763556 Z" id="Shape"></path>
                </g>
            </g>
        </g>
    </g>
</svg>