<?xml version="1.0" encoding="UTF-8"?>
<svg width="40px" height="40px" viewBox="0 0 40 40" version="1.1" xmlns="http://www.w3.org/2000/svg" xmlns:xlink="http://www.w3.org/1999/xlink">
    <title>65E4044F-04AB-4CF5-B700-DDB572E18007</title>
    <g id="Batch-02" stroke="none" stroke-width="1" fill="none" fill-rule="evenodd">
        <g id="Homepage-Design" transform="translate(-958.000000, -826.000000)" fill="#FFFFFF" fill-rule="nonzero">
            <g id="Statistics-Copy" transform="translate(116.000000, 770.000000)">
                <g id="puzzle" transform="translate(842.000000, 56.000000)">
                    <path d="M5.8267839,19.0909091 C5.99708117,19.0909091 6.15899287,19.0180829 6.27066963,18.8911395 C6.38226802,18.7642734 6.43265971,18.5958917 6.4086786,18.4295201 C6.38226802,18.2459084 6.36886681,18.057658 6.36886681,17.8703353 C6.36886681,15.7182506 8.14370441,13.9674833 10.3252021,13.9674833 C12.5066999,13.9674833 14.2815375,15.7182506 14.2815375,17.8703353 C14.2815375,18.0579672 14.2681363,18.2459857 14.2417257,18.4292109 C14.2177446,18.5955825 14.2680579,18.7640415 14.3797347,18.8909849 C14.4914114,19.0179282 14.6533231,19.0909091 14.8236988,19.0909091 L18.7644385,19.0906772 C18.9203158,19.0906772 19.0698451,19.0296021 19.1800328,18.9208266 C19.2902989,18.8121284 19.3522109,18.6646978 19.3522109,18.5108505 L19.3519758,12.7473734 C19.3518975,12.4801119 19.5026023,12.2397545 19.7447645,12.1203875 C19.987397,12.0007886 20.2725842,12.0263009 20.4893546,12.1870289 C20.9305758,12.5138965 21.4565146,12.6866076 22.0101962,12.6866076 C23.4081541,12.6866076 24.5454545,11.5646816 24.5454545,10.1856218 C24.5454545,8.80656209 23.4080757,7.68463614 22.0101178,7.68463614 C21.4562795,7.68463614 20.9304191,7.85734718 20.4893546,8.1842148 C20.2725058,8.34486544 19.9872403,8.37053244 19.7449997,8.25101083 C19.5025239,8.13148923 19.3518975,7.89120905 19.3518975,7.6238703 L19.3518975,0.57982667 C19.3518975,0.259530418 19.0887322,0 18.764125,0 L1.8861225,0 C0.846078803,0 0,0.834641165 0,1.86054782 L0,3.38355921 C0,3.70385546 0.263165304,3.96338588 0.587772418,3.96338588 C0.912379532,3.96338588 1.17554484,3.70385546 1.17554484,3.38355921 L1.17554484,1.86054782 C1.17554484,1.47407402 1.49427423,1.15965334 1.8861225,1.15965334 L18.176431,1.15965334 L18.176431,7.6238703 C18.176431,8.33342353 18.5761946,8.97123287 19.2196879,9.2883594 C19.8630244,9.60564055 20.6201536,9.53776218 21.1953869,9.11147361 C21.4312795,8.9366752 21.7129401,8.84428948 22.0101178,8.84428948 C22.7598803,8.84428948 23.3698313,9.44599494 23.3698313,10.1856218 C23.3698313,10.9252487 22.7598803,11.5269542 22.0101178,11.5269542 C21.7130184,11.5269542 21.4312012,11.4345685 21.1952301,11.2597701 C20.620232,10.8337134 19.8633378,10.7658351 19.2194527,11.0828843 C18.5760379,11.4001654 18.1763526,12.0380521 18.1763526,12.7474507 L18.1765094,17.9310238 L15.4566905,17.9311011 C15.4569256,17.9108459 15.4570823,17.8905906 15.4570823,17.8703353 C15.4570823,15.0788951 13.1548953,12.80783 10.3252021,12.80783 C7.49543061,12.80783 5.19332198,15.0788951 5.19332198,17.8703353 C5.19332198,17.8906679 5.19340035,17.9109232 5.19371382,17.9312557 L1.17554484,17.9312557 L1.17554484,5.7029432 C1.17554484,5.38264695 0.912379532,5.12311653 0.587772418,5.12311653 C0.263165304,5.12311653 0,5.38264695 0,5.7029432 L0,18.5110824 C0,18.8313014 0.263165304,19.0909091 0.587772418,19.0909091 L5.8267839,19.0909091 Z" id="Path"></path>
                    <path d="M3.99178574,7.54954884 L3.99178574,4.05782033 C3.99178574,4.02140161 4.02146162,3.99181141 4.05779772,3.99181141 L7.54951952,3.99181141 C7.898717,3.99181141 8.18181818,3.70872335 8.18181818,3.35954207 C8.18181818,3.01027648 7.898717,2.72727273 7.54951952,2.72727273 L4.05788202,2.72727273 C3.32416266,2.72727273 2.72727273,3.32413499 2.72727273,4.05782033 L2.72727273,7.54954884 C2.72727273,7.89881442 3.01037391,8.18181818 3.35957139,8.18181818 C3.70876886,8.18181818 3.99178574,7.89881442 3.99178574,7.54954884 Z" id="Path"></path>
                    <path d="M36.8512706,2.72727273 L33.3595421,2.72727273 C33.0103608,2.72727273 32.7272727,3.01028523 32.7272727,3.35956161 C32.7272727,3.70883799 33.0103608,3.9918505 33.3595421,3.9918505 L36.8512706,3.9918505 C36.8876893,3.9918505 36.9172795,4.02152592 36.9172795,4.05786146 L36.9172795,7.5495293 C36.9172795,7.89880568 37.2003676,8.18181818 37.5495488,8.18181818 C37.8987301,8.18181818 38.1818182,7.89880568 38.1818182,7.5495293 L38.1818182,4.05786146 C38.1818182,3.32415344 37.5848716,2.72727273 36.8512706,2.72727273 Z" id="Path"></path>
                    <path d="M38.1818182,36.8512911 L38.1818182,33.3595323 C38.1818182,33.0102721 37.8987214,32.7272727 37.5495293,32.7272727 C37.2003372,32.7272727 36.9172404,33.0102721 36.9172404,33.3595323 L36.9172404,36.8512911 C36.9172404,36.8877093 36.887565,36.917299 36.8512295,36.917299 L33.3595616,36.917299 C33.0103695,36.917299 32.7272727,37.2002984 32.7272727,37.5495586 C32.7272727,37.8988188 33.0103695,38.1818182 33.3595616,38.1818182 L36.8512295,38.1818182 C37.5848532,38.1818182 38.1818182,37.5849651 38.1818182,36.8512911 L38.1818182,36.8512911 Z" id="Path"></path>
                    <path d="M7.54954884,36.9172404 L4.05782033,36.9172404 C4.02140161,36.9172404 3.99181141,36.887565 3.99181141,36.8511451 L3.99181141,33.3595616 C3.99181141,33.0102852 3.70872335,32.7272727 3.35954207,32.7272727 C3.01036079,32.7272727 2.72727273,33.0102852 2.72727273,33.3595616 L2.72727273,36.8511451 C2.72727273,37.5848532 3.32421929,38.1818182 4.05782033,38.1818182 L7.54954884,38.1818182 C7.89873012,38.1818182 8.18181818,37.8988057 8.18181818,37.5495293 C8.18181818,37.2003372 7.89873012,36.9172404 7.54954884,36.9172404 Z" id="Path"></path>
                    <path d="M38.1393447,0 L21.488927,0 C21.1687028,0 20.9090909,0.263087774 20.9090909,0.587774295 L20.9090909,5.82672414 C20.9090909,5.99702194 20.9819183,6.15893417 21.1088638,6.27061129 C21.2357319,6.38221003 21.404039,6.43236677 21.5704906,6.40869906 C21.7537961,6.3822884 21.9418176,6.36888715 22.1294525,6.36888715 C24.2814948,6.36888715 26.0323677,8.14365204 26.0323677,10.3252351 C26.0323677,12.5068182 24.2814948,14.2815831 22.1294525,14.2815831 C21.9422815,14.2815831 21.7541826,14.2681818 21.5704133,14.2417712 C21.4041163,14.2180251 21.2356546,14.2682602 21.1088638,14.3799373 C20.9819956,14.4916144 20.9090909,14.6534483 20.9090909,14.8237461 L20.9093228,18.7644201 C20.9093228,19.0891066 21.1689348,19.3521944 21.4891589,19.3521944 L27.2524201,19.352116 C27.5197632,19.352116 27.7600473,19.5027429 27.8794935,19.7451411 C27.9989397,19.9876176 27.9734269,20.2727273 27.8129283,20.4893417 C27.4859781,20.9304859 27.3131869,21.4564263 27.3131869,22.0101097 C27.3131869,23.4080721 28.4351311,24.5454545 29.8142132,24.5454545 C31.1932953,24.5454545 32.3152394,23.4080721 32.3152394,22.0101097 C32.3152394,21.4564263 32.1424482,20.9305643 31.8155753,20.4894201 C31.6550767,20.2727273 31.6295639,19.9876176 31.7490874,19.7452194 C31.8685337,19.5028213 32.1088177,19.3521944 32.3760835,19.3521944 L39.4201639,19.3521944 C39.7403881,19.3521944 40,19.0891066 40,18.7644201 L40,1.88605016 C40,0.846081505 39.1653453,0 38.1393447,0 Z M38.8404052,18.1767241 L32.3760835,18.1767241 C31.6664415,18.1767241 31.0286991,18.576489 30.7116448,19.219906 C30.3944358,19.8634013 30.4621606,20.6203762 30.8883015,21.1954545 C31.0631027,21.4314263 31.1555673,21.7132445 31.1555673,22.0102665 C31.1555673,22.7600313 30.553852,23.3700627 29.8142132,23.3700627 C29.0745743,23.3700627 28.4728591,22.7601097 28.4728591,22.0102665 C28.4728591,21.7132445 28.5652463,21.4314263 28.7401248,21.1954545 C29.1662657,20.6203762 29.2339905,19.8634013 28.9169362,19.219906 C28.5998045,18.5764107 27.9619848,18.1766458 27.2524201,18.1766458 L22.0688403,18.1767241 L22.0688403,15.4568182 C24.8893176,15.4881661 27.1921172,13.1755486 27.1921172,10.3252351 C27.1921172,7.49553292 24.9210926,5.19333856 22.1295299,5.19333856 C22.1092742,5.19333856 22.089096,5.1934953 22.0688403,5.19373041 L22.0688403,1.17554859 L38.139422,1.17554859 C38.5259021,1.17554859 38.8404052,1.494279 38.8404052,1.88605016 L38.8404052,18.1767241 L38.8404052,18.1767241 Z" id="Shape"></path>
                    <path d="M18.8909067,33.7294671 C18.7640401,33.6177116 18.5957351,33.5674765 18.4293628,33.5913009 C18.2455957,33.6177116 18.0574992,33.6311129 17.8703304,33.6311129 C15.7183143,33.6311129 13.9674626,31.856348 13.9674626,29.6747649 C13.9674626,27.4931818 15.7183143,25.7184169 17.8703304,25.7184169 C18.0575765,25.7184169 18.2458276,25.7318182 18.4296721,25.7582288 C18.5962763,25.7825235 18.7643494,25.7317398 18.891216,25.6200627 C19.0180826,25.5083856 19.0909091,25.3465517 19.0909091,25.1762539 L19.0909091,21.235815 C19.0909091,20.9111285 18.8311457,20.6480408 18.5109255,20.6480408 L12.7473477,20.6481191 C12.4800079,20.6481191 12.2397267,20.4974922 12.1202046,20.2550157 C12.0007599,20.0126176 12.0262723,19.7275078 12.1869236,19.510815 C12.5138699,19.0695141 12.6866589,18.5435737 12.6866589,17.9898903 C12.6866589,16.5919279 11.5647284,15.4545455 10.1856631,15.4545455 C8.80659775,15.4545455 7.68466726,16.5918495 7.68466726,17.9898119 C7.68466726,18.5434953 7.85753362,19.0695141 8.18463449,19.5109718 C8.34520848,19.7275862 8.37072095,20.0126959 8.25127618,20.255094 C8.1318314,20.4975705 7.89155025,20.6481975 7.62421042,20.6481975 L0.579829019,20.6481975 C0.259608779,20.6481975 0,20.9112853 0,21.2359718 L0,38.1138715 C0,39.1539185 0.834644545,40 1.86063267,40 L18.5107708,40 C18.8309911,40 19.0905998,39.7369122 19.0905998,39.4122257 L19.0905998,34.1732759 C19.0905998,34.0029781 19.017696,33.8410658 18.8909067,33.7294671 L18.8909067,33.7294671 Z M17.9310191,38.8244514 L1.86063267,38.8244514 C1.47407999,38.8244514 1.15965804,38.505721 1.15965804,38.1139498 L1.15965804,21.8237461 L7.62413311,21.8237461 C8.33376652,21.8237461 8.97157844,21.4239028 9.28862895,20.7804859 C9.60575676,20.1369122 9.53795542,19.3799373 9.11166513,18.8049373 C8.93671139,18.5687304 8.84424799,18.2869906 8.84424799,17.9898903 C8.84424799,17.2401254 9.44595589,16.630094 10.1855858,16.630094 C10.9252157,16.630094 11.5269236,17.240047 11.5269236,17.9898903 C11.5269236,18.2869906 11.4344602,18.5688088 11.2596611,18.8047022 C10.8332935,19.3798589 10.7654921,20.1369122 11.0826972,20.7804075 C11.3998251,21.4239028 12.037637,21.8235893 12.7471931,21.8235893 L17.9310191,21.823511 L17.9310191,24.5431818 C17.9107638,24.5429467 17.8904311,24.54279 17.8701757,24.54279 C15.0787242,24.54279 12.8076499,26.8449843 12.8076499,29.6746865 C12.8076499,32.5043887 15.0787242,34.8065831 17.8701757,34.8065831 C17.8903538,34.8065831 17.9105318,34.8064263 17.9307872,34.8061912 L17.9307872,38.8244514 L17.9310191,38.8244514 Z" id="Shape"></path>
                    <path d="M34.1732573,20.9090909 C34.0029589,20.9090909 33.8409678,20.9819959 33.7293687,21.1089419 C33.6177696,21.2358105 33.5673776,21.4041956 33.5913588,21.5705706 C33.6177696,21.7539541 33.6311709,21.9419764 33.6311709,22.1293802 C33.6311709,24.2815084 31.856322,26.0323112 29.6748103,26.0323112 C27.4932986,26.0323112 25.7184497,24.2814311 25.7184497,22.1293802 C25.7184497,21.9419764 25.731851,21.7539541 25.7582617,21.5704933 C25.782243,21.4041956 25.731851,21.2357332 25.6202519,21.1088646 C25.5085744,20.9819186 25.3466617,20.9090909 25.1763633,20.9090909 L21.2359119,20.9090909 C21.0800336,20.9090909 20.9305034,20.9702445 20.8203149,21.0790222 C20.7100481,21.1877226 20.6481357,21.3352335 20.6481357,21.4890066 L20.6483708,27.2526004 C20.6483708,27.5199446 20.4977434,27.7603069 20.2552661,27.8797537 C20.0127888,27.9992004 19.7275999,27.9735329 19.510828,27.8129563 C19.0696824,27.4860047 18.5437403,27.3131356 17.98982,27.3131356 C16.5918532,27.3131356 15.4545455,28.4350842 15.4545455,29.8141719 C15.4545455,31.1932596 16.5918532,32.3152083 17.98982,32.3152083 C18.5435052,32.3152083 19.0693689,32.1424937 19.5105929,31.8156195 C19.7273647,31.6550429 20.0124754,31.62953 20.2549526,31.749054 C20.4973515,31.8685007 20.6479006,32.1087085 20.6479006,32.3760526 L20.6479006,39.4201616 C20.6479006,39.7404643 20.9110676,40 21.2356768,40 L34.5140891,40 C34.8386983,40 35.1018652,39.7404643 35.1018652,39.4201616 C35.1018652,39.0998589 34.8386983,38.8403232 34.5140891,38.8403232 L21.8233746,38.8403232 L21.8233746,32.3760526 C21.8233746,31.6664077 21.4236084,31.0285855 20.7801894,30.7116072 C20.1367704,30.3944742 19.3797147,30.462122 18.8044778,30.8883419 C18.5685052,31.0631439 18.2867645,31.1555314 17.9896633,31.1555314 C17.239896,31.1555314 16.6299411,30.5538138 16.6299411,29.8141719 C16.6299411,29.07453 17.239896,28.4728124 17.9896633,28.4728124 C18.2868429,28.4728124 18.5685836,28.5652 18.8044778,28.7400792 C19.3796364,29.1665311 20.1368488,29.2344108 20.7802678,28.9172005 C21.4238435,28.6000676 21.8236097,27.962168 21.8236097,27.2526004 L21.8233746,22.068845 L24.5429757,22.0687677 C24.5427406,22.0890234 24.5426622,22.1091245 24.5426622,22.1293029 C24.5426622,24.9207996 26.844864,27.1919107 29.6745752,27.1919107 C32.5043648,27.1919107 34.8064881,24.9207996 34.8064881,22.1293029 C34.8064881,22.1091245 34.8064097,22.0889461 34.8061746,22.068845 L38.8244477,22.068845 L38.8244477,38.1393372 C38.8244477,38.5258188 38.5057162,38.8402459 38.1138655,38.8402459 L36.8156638,38.8402459 C36.4910546,38.8402459 36.2278876,39.0997815 36.2278876,39.4200843 C36.2278876,39.740387 36.4910546,40 36.8156638,40 L38.1138655,40 C39.1538374,40 40,39.1652646 40,38.1393372 L40,21.4890066 C40,21.1687812 39.736833,20.9090909 39.4122238,20.9090909 L34.1732573,20.9090909 Z" id="Path"></path>
                </g>
            </g>
        </g>
    </g>
</svg>