<?xml version="1.0" encoding="utf-8"?>
<!-- Generator: Adobe Illustrator 25.1.0, SVG Export Plug-In . SVG Version: 6.00 Build 0)  -->
<svg version="1.1" id="Layer_1" xmlns="http://www.w3.org/2000/svg" xmlns:xlink="http://www.w3.org/1999/xlink" x="0px" y="0px"
	 viewBox="0 0 40 40" style="enable-background:new 0 0 40 40;" xml:space="preserve">
<style type="text/css">
	.st0{fill:#FFFFFF;}
</style>
<g id="Batch-02_1_">
	<g id="Homepage-Design_1_" transform="translate(-613.000000, -826.000000)">
		<g id="Statistics-Copy_1_" transform="translate(116.000000, 770.000000)">
			<g id="dish-copy" transform="translate(497.000000, 56.000000)">
				<path id="Shape_3_" class="st0" d="M28.4,13.4L27.9,12c-0.6-1.6-2.3-2.4-4-1.9c-0.9,0.3-1.7,1-2,1.9l-0.4,1.4
					c-0.4,1.2-0.4,2.4-0.2,3.7c0.2,1,0.9,1.9,1.8,2.4l-0.5,10.7c-0.1,0.6,0.1,1.2,0.5,1.6c0.9,0.9,2.4,1,3.4,0.1
					c0.1,0,0.1-0.1,0.2-0.1c0.4-0.4,0.6-1,0.5-1.6l-0.5-10.7c1-0.5,1.6-1.4,1.8-2.4C28.8,15.8,28.7,14.5,28.4,13.4z M27.2,16.8
					c-0.1,0.7-0.7,1.3-1.4,1.6c-0.3,0.1-0.5,0.4-0.4,0.7l0.5,11.2c0,0.2-0.1,0.4-0.2,0.6c-0.4,0.4-1.1,0.4-1.5,0
					C24,30.7,24,30.4,24,30.2L24.5,19c0-0.3-0.2-0.6-0.4-0.7c-0.7-0.2-1.3-0.9-1.4-1.6c-0.2-1-0.1-2.1,0.2-3l0.4-1.4
					c0.3-0.9,1.4-1.3,2.3-1c0.5,0.2,0.9,0.5,1,1l0.4,1.4C27.4,14.7,27.4,15.8,27.2,16.8z"/>
				<path id="Path_13_" class="st0" d="M18.1,9.9c-0.4,0-0.7,0.3-0.7,0.7v5.7l-1.9,1.8c-0.1,0.1-0.2,0.3-0.2,0.5L16,30.2
					c0,0.3-0.1,0.5-0.3,0.7c-0.4,0.4-1,0.4-1.4,0c0,0,0,0,0,0c-0.2-0.2-0.3-0.4-0.3-0.7l0.6-11.6c0-0.2-0.1-0.4-0.2-0.5l-1.9-1.8
					v-5.7c0-0.4-0.3-0.7-0.7-0.7c-0.4,0-0.7,0.3-0.7,0.7v6c0,0.2,0.1,0.3,0.2,0.5l1.8,1.8l-0.6,11.3c-0.1,1.2,0.9,2.3,2.2,2.4
					c1.3,0.1,2.4-0.9,2.4-2.1c0-0.1,0-0.1,0-0.2l-0.6-11.3l1.8-1.8c0.1-0.1,0.2-0.3,0.2-0.5v-6C18.8,10.2,18.5,9.9,18.1,9.9z"/>
				<path id="Path_12_" class="st0" d="M13.9,9.9c-0.4,0-0.7,0.3-0.7,0.7v5.3c0,0.4,0.3,0.7,0.7,0.7c0.4,0,0.7-0.3,0.7-0.7v-5.3
					C14.6,10.2,14.3,9.9,13.9,9.9z"/>
				<path id="Path_11_" class="st0" d="M16.2,9.9c-0.4,0-0.7,0.3-0.7,0.7v5.3c0,0.4,0.3,0.7,0.7,0.7c0.4,0,0.7-0.3,0.7-0.7v-5.3
					C16.9,10.2,16.6,9.9,16.2,9.9z"/>
				<path id="Shape_2_" class="st0" d="M20,0C9,0,0,9,0,20s9,20,20,20s20-9,20-20C40,9,31,0,20,0z M20,38.7
					C9.7,38.7,1.3,30.3,1.3,20S9.7,1.3,20,1.3S38.7,9.7,38.7,20C38.7,30.3,30.3,38.7,20,38.7z"/>
				<path id="Path_10_" class="st0" d="M22.1,32.6c0-0.4-0.4-0.6-0.7-0.6c0,0,0,0,0,0l0,0c-0.9,0.1-1.8,0.1-2.8,0
					c-0.4,0-0.7,0.2-0.7,0.6c0,0.4,0.2,0.7,0.6,0.7c1,0.1,2,0.1,3.1,0C21.9,33.3,22.1,33,22.1,32.6z"/>
				<path id="Path_9_" class="st0" d="M30.2,11.1c-0.2-0.3-0.7-0.3-1-0.1c0,0,0,0,0,0c-0.3,0.2-0.3,0.7-0.1,0.9
					c4.1,4.7,3.8,11.8-0.7,16.1c-0.3,0.3-0.3,0.7,0,0.9c0.3,0.3,0.7,0.3,1,0C34.4,24.1,34.8,16.3,30.2,11.1z"/>
				<g id="Group" transform="translate(16.941176, 7.411765)">
					<path id="Path_8_" class="st0" d="M-1.2,1.4C-1.2,1.4-1.2,1.4-1.2,1.4C-1.2,1.4-1.2,1.4-1.2,1.4L-1.2,1.4z"/>
					<path id="Path_6_" class="st0" d="M6.1-0.4C3.6-1.1,1-0.9-1.4,0.1C-1.8,0.2-1.9,0.6-1.8,1c0.1,0.3,0.3,0.5,0.6,0.5
						c0.1,0,0.2,0,0.2,0c2.2-0.9,4.5-1,6.8-0.5C6.1,1,6.5,0.8,6.6,0.4S6.4-0.3,6.1-0.4z"/>
				</g>
				<path id="Path_7_" class="st0" d="M11.6,28.5C9.3,26.2,8,23.2,8,20c0-2.6,0.8-5.1,2.4-7.1c0.2-0.3,0.2-0.7-0.1-0.9
					c-0.3-0.2-0.7-0.2-1,0.1c0,0,0,0,0,0c-4,5.3-3.4,12.7,1.4,17.4c0.3,0.3,0.7,0.3,1,0C11.8,29.2,11.8,28.8,11.6,28.5z"/>
			</g>
		</g>
	</g>
</g>
</svg>
